<svg xmlns="http://www.w3.org/2000/svg" width="440.099" height="398.138" viewBox="0 0 440.099 398.138">
  <path id="Shape" d="M334.445,398.138c-29.525.005-60.129-14.417-88.822-43.085L24.134,133a87.8,87.8,0,0,1-23-44.4C-1.807,72.059-.446,47.474,22.773,24.255,46.566.437,70.264-1.66,85.961.785c22.634,3.514,38.926,17.749,44.875,23.7L353.308,247.489c6.095,6.084,20.411,20.376,20.411,39.743,0,11.8-5.212,22.987-15.5,33.245-9.175,9.195-34.384,26.828-69.656-8.378L66.463,90.176a12.6,12.6,0,0,1,17.81-17.83l222.1,221.918c21.258,21.2,30.543,11.887,34.032,8.388,5.389-5.374,8.111-10.561,8.111-15.425,0-8.912-8.8-17.7-13.031-21.918L113.011,42.3c-4.194-4.194-15.622-14.226-30.916-16.6C67.683,23.454,53.7,28.964,40.6,42.075,28.126,54.552,23.2,68.717,25.954,84.187a62.083,62.083,0,0,0,16.015,31l221.49,222.059c25.4,25.376,75.589,60.426,126.13,9.9,23.168-23.168,30.387-47.39,22.074-74.047-5.192-16.67-16.681-34.213-33.215-50.732L185.177,29.987a12.6,12.6,0,0,1,17.779-17.86L396.237,204.51c19.428,19.418,33.074,40.529,39.476,61.076,7.7,24.706,9.049,62.009-28.315,99.377C385.238,387.124,360.25,398.138,334.445,398.138Z" fill="#9d9d9d"/>
</svg>
